# xmcd
#
# Track frame offsets:
#	150
#	21812
#	35540
#	64009
#	85349
#	101301
#	114787
#	135608
#	159588
#	175566
#	196652
#	224111
#	259496
#
# Disc length: 3647 seconds
#
# Revision: 1
# Processed by: cddbd v1.5.1PL0 Copyright (c) Steve Scherf et al.
# Submitted via: audiograbber 1.83.01
#
DISCID=ab0e3d0d
DTITLE=Darrell Mansfield - The Best Of Darrell Mansfield Volume 1
DYEAR=1900
DGENRE=
TTITLE0=Thunder And Lightning
TTITLE1=Runnin'
TTITLE2=Dreaming And Scheming
TTITLE3=After The Storm
TTITLE4=Need Somebody On Your Bond
TTITLE5=Nobody's Fault But Mine
TTITLE6=Jesus Comin' Soon
TTITLE7=Tell The Truth
TTITLE8=Last Chance Boogie
TTITLE9=The Mission
TTITLE10=Waiting
TTITLE11=He Has Overcome
TTITLE12=Hello Goodbye Boogie
EXTD=
EXTT0=
EXTT1=
EXTT2=
EXTT3=
EXTT4=
EXTT5=
EXTT6=
EXTT7=
EXTT8=
EXTT9=
EXTT10=
EXTT11=
EXTT12=
PLAYORDER=
